<svg version="1.1" preserveAspectRatio="none" xmlns="http://www.w3.org/2000/svg" width="500" height="500" viewBox="0 0 500 500"><rect width="100%" height="100%" fill="#192537" fill-opacity="1"/><svg viewBox="427.5501 538.344 390.3438 206.6664" width="333" height="176.30589034589508" x="83.5px" y="161.8471px" xmlns="http://www.w3.org/2000/svg" xmlns:xlink="http://www.w3.org/1999/xlink" preserveAspectRatio="none"><defs></defs><style>.companyName {fill:#E9E9E9;fill-opacity:1;}.icon1 {fill:#B09E80;fill-opacity:0.98;}.icon2 {fill:#E9E9E9;fill-opacity:1;}.icon3 {fill:#716551;fill-opacity:1;}.icon3-str {stroke:#716551;stroke-opacity:1;}.shapeStroke-str {stroke:#E9E9E9;stroke-opacity:1;}.text {fill:#B09E80;fill-opacity:1;}</style><defs></defs><g opacity="1" transform="rotate(0 573.8947 728.2104)">
<svg width="97.6547" height="16.8" x="573.8947" y="728.2104" version="1.1" preserveAspectRatio="none" viewBox="4.16 -29.8 178.8 30.76">
  <g transform="matrix(1 0 0 1 0 0)" class="text"><path id="id-6izo4zJp6" d="M17.04-15Q19.52-14.04 20.96-12.26Q22.40-10.48 22.40-8.12L22.40-8.12Q22.40-5.36 21.06-3.54Q19.72-1.72 17.54-0.86Q15.36 0 12.76 0L12.76 0L4.16 0L4.16-28.92L11.64-28.92Q16.08-28.92 18.52-27.10Q20.96-25.28 20.96-21.64L20.96-21.64Q20.96-19.36 19.94-17.66Q18.92-15.96 17.04-15L17.04-15ZM8.04-25.20L8.04-16.28L12.44-16.28Q14.68-16.28 15.82-17.56Q16.96-18.84 16.96-20.84L16.96-20.84Q16.96-23.04 15.60-24.12Q14.24-25.20 11.80-25.20L11.80-25.20L8.04-25.20ZM12.60-3.60Q15.12-3.60 16.76-4.74Q18.40-5.88 18.40-8.08L18.40-8.08Q18.40-10.36 16.62-11.44Q14.84-12.52 12.32-12.52L12.32-12.52L8.04-12.52L8.04-3.60L12.60-3.60Z M36.92-28.92L40.80-28.92L40.80 0L36.92 0L36.92-28.92Z M55.32-14.44Q55.32-18.40 57.32-21.80Q59.32-25.20 62.70-27.22Q66.08-29.24 70.08-29.24L70.08-29.24Q74.04-29.24 77.44-27.22Q80.84-25.20 82.86-21.80Q84.88-18.40 84.88-14.44L84.88-14.44Q84.88-10.44 82.88-7.04Q80.88-3.64 77.46-1.66Q74.04 0.32 70.08 0.32L70.08 0.32Q66.08 0.32 62.68-1.64Q59.28-3.60 57.30-6.98Q55.32-10.36 55.32-14.44L55.32-14.44ZM59.32-14.40Q59.32-11.44 60.76-8.92Q62.20-6.40 64.70-4.92Q67.20-3.44 70.16-3.44L70.16-3.44Q73.12-3.44 75.58-4.90Q78.04-6.36 79.46-8.90Q80.88-11.44 80.88-14.44L80.88-14.44Q80.88-17.44 79.44-20Q78-22.56 75.52-24.04Q73.04-25.52 70.08-25.52L70.08-25.52Q67.12-25.52 64.64-24.02Q62.16-22.52 60.74-19.96Q59.32-17.40 59.32-14.40L59.32-14.40Z M120.72-28.92L124.60-28.92L124.60 0.96L124.48 0.96L103.24-20.60L103.32 0L99.40 0L99.40-29.80L99.60-29.80L120.80-8L120.72-28.92Z M140.92 0L140.92-28.92L148.84-28.92Q154.24-28.92 157.78-26.78Q161.32-24.64 162.94-21.26Q164.56-17.88 164.56-14.12L164.56-14.12Q164.56-9.92 162.60-6.70Q160.64-3.48 157.36-1.74Q154.08 0 150.24 0L150.24 0L140.92 0ZM144.80-3.76L149.48-3.76Q152.68-3.76 155.20-5.02Q157.72-6.28 159.14-8.68Q160.56-11.08 160.56-14.40L160.56-14.40Q160.56-17.80 159.08-20.24Q157.60-22.68 155.14-23.94Q152.68-25.20 149.84-25.20L149.84-25.20L144.80-25.20L144.80-3.76Z M179.08-28.92L182.96-28.92L182.96 0L179.08 0L179.08-28.92Z"/></g>
</svg>
</g><g opacity="1" transform="rotate(0 607.722 538.344)">
<svg width="30" height="23.7328" x="607.722" y="538.344" version="1.1" preserveAspectRatio="none" viewBox="25.9679012298584 30.976905822753903 48.06419372558594 38.023284912109375">
  <g transform="matrix(1 0 0 1 0 0)"><defs><g id="id-LgOaV3zR0"><title>Artboard 265</title><path d="M32,69H68a2,2,0,0,0,2-1.67l4-24a2,2,0,0,0-3-2.07L58.93,48.17l-7.1-16a2,2,0,0,0-3.66,0l-7.1,16L29,41.26a2,2,0,0,0-3,2.07l4,24A2,2,0,0,0,32,69Zm9-16.26a2,2,0,0,0,1.61.16,2,2,0,0,0,1.21-1.09L50,37.92l6.17,13.89a2,2,0,0,0,1.21,1.09A2,2,0,0,0,59,52.74l10.34-5.91L66.31,65H33.69l-3-18.17Z"></path></g></defs><use class="icon1" xlink:href="#id-LgOaV3zR0"></use></g>
</svg>
</g><g opacity="1" transform="rotate(0 427.5501 554.2104)">
<svg width="165.1719" height="2" x="427.5501" y="554.2104" version="1.1" preserveAspectRatio="none" viewBox="0 0 165.1719 2">
  <defs><rect x="0" y="0" width="165.1719" height="2" rx="0px" ry="0px" id="id-sr1BtIxl1668714810311"></rect></defs><use class="icon1 shapeStroke-str" style="stroke-width:0;" xlink:href="#id-sr1BtIxl1668714810311"></use>
</svg>
</g><g opacity="1" transform="rotate(0 652.722 554.2104)">
<svg width="165.1719" height="2" x="652.722" y="554.2104" version="1.1" preserveAspectRatio="none" viewBox="0 0 165.1719 2">
  <defs><rect x="0" y="0" width="165.1719" height="2" rx="0px" ry="0px" id="id-R9TavoXY1668714810312"></rect></defs><use class="icon1 shapeStroke-str" style="stroke-width:0;" xlink:href="#id-R9TavoXY1668714810312"></use>
</svg>
</g><g opacity="1" transform="rotate(0 427.5501 580.2104)">
<svg width="390.3438" height="120" x="427.5501" y="580.2104" version="1.1" preserveAspectRatio="none" viewBox="2.4 -28 114.24 35.120000000000005">
  <g transform="matrix(1 0 0 1 0 0)" class="companyName"><path id="id-D6z1nYkh5" d="M2.40-0.40L2.92-0.40Q3.96-0.40 4.70-1.14Q5.44-1.88 5.48-2.92L5.48-2.92L5.48-25.08Q5.44-26.12 4.70-26.86Q3.96-27.60 2.92-27.60L2.92-27.60L2.40-27.60L2.40-28L11.16-28L11.16-27.60L10.64-27.60Q9.20-27.60 8.44-26.36L8.44-26.36Q8.08-25.76 8.08-25.08L8.08-25.08L8.08-1.24L13.80-1.24Q16.76-1.24 18.32-2.56Q19.88-3.88 20.92-6.48L20.92-6.48L21.32-6.48L19 0L2.40 0L2.40-0.40Z M33.20-22.98Q36.28-24.56 39.98-24.56Q43.68-24.56 46.76-22.98Q49.84-21.40 51.66-18.52Q53.48-15.64 53.48-12Q53.48-8.36 51.66-5.48Q49.84-2.60 46.76-1.02Q43.68 0.56 40.44 0.56Q37.20 0.56 34.72-0.36Q32.24-1.28 30.42-2.92Q28.60-4.56 27.54-6.92Q26.48-9.28 26.48-12.46Q26.48-15.64 28.30-18.52Q30.12-21.40 33.20-22.98ZM32.46-3.82Q35.48-0.64 39.96-0.64Q44.44-0.64 47.48-3.82Q50.52-7 50.52-12Q50.52-17 47.48-20.18Q44.44-23.36 39.96-23.36Q35.48-23.36 32.46-20.18Q29.44-17 29.44-12Q29.44-7 32.46-3.82Z M68.40-23.60L67.88-23.60Q66.40-23.60 65.64-22.52L65.64-22.52Q65.32-22.04 65.28-21.44L65.28-21.44L65.28 0Q65.28 2.92 63.10 5.02Q60.92 7.12 57.96 7.12L57.96 7.12L57.96 6.72Q59.92 6.12 61.32 4.16Q62.72 2.20 62.72 0L62.72 0L62.72-21.60Q62.64-22.44 61.90-23.02Q61.16-23.60 60.12-23.60L60.12-23.60L59.64-23.60L59.60-24L68.40-24L68.40-23.60Z M98.20-0.40L98.20-0.40L98.52-0.40L98.52 0L90.32 0L90.32-0.40L90.64-0.40Q91.40-0.40 91.80-0.92Q92.20-1.44 92.20-1.90Q92.20-2.36 92.04-2.80L92.04-2.80L89.84-8.12L79.72-8.12L77.52-2.92Q77.32-2.40 77.32-1.94Q77.32-1.48 77.72-0.94Q78.12-0.40 78.92-0.40L78.92-0.40L79.24-0.40L79.24 0L71.60 0L71.60-0.40L71.92-0.40Q72.76-0.40 73.62-0.98Q74.48-1.56 75.04-2.72L75.04-2.72Q83.80-21.44 84.16-22.32L84.16-22.32Q84.84-24 84.88-24.56L84.88-24.56L85.24-24.56L95.12-2.72Q96.28-0.40 98.20-0.40ZM84.88-20.28L80.24-9.32L89.36-9.32L84.88-20.28Z M102.64-1.32L102.64-1.32Q102.52-1.80 102.52-3.28Q102.52-4.76 103.04-6.28L103.04-6.28L103.52-6.28Q103.48-5.92 103.48-5.56L103.48-5.56Q103.48-3.40 104.90-2.02Q106.32-0.64 108.84-0.64L108.84-0.64Q111.48-0.64 112.96-1.86Q114.44-3.08 114.44-5.02Q114.44-6.96 113-8.24L113-8.24L105-14.40Q103.08-16.04 103.08-18.80L103.08-18.80Q103.08-20.36 103.94-21.68Q104.80-23 106.34-23.78Q107.88-24.56 109.96-24.56Q112.04-24.56 113.64-24.20L113.64-24.20L114.96-24.20L115.04-19.84L114.60-19.84Q114.60-21.52 113.44-22.44Q112.28-23.36 110.12-23.36Q107.96-23.36 106.56-22.26Q105.16-21.16 105.16-19.42Q105.16-17.68 106.72-16.40L106.72-16.40L114.80-10.16Q116.64-8.64 116.64-5.92Q116.64-3.20 114.58-1.32Q112.52 0.56 109.56 0.56L109.56 0.56Q107.60 0.56 105.64 0.08Q103.68-0.40 102.64-1.32Z"/></g>
</svg>
</g></svg></svg>